<?xml version="1.0" encoding="iso-8859-1"?>
<!DOCTYPE svg PUBLIC "-//W3C//DTD SVG 1.1//EN" "http://www.w3.org/Graphics/SVG/1.1/DTD/svg11.dtd">
<svg version="1.1" id="Capa_1" xmlns="http://www.w3.org/2000/svg" xmlns:xlink="http://www.w3.org/1999/xlink" x="0px" y="0px"
	 fill="rgb(40, 160, 255)" viewBox="0 0 235 235" style="enable-background:new 0 0 235 235;" xml:space="preserve">
<path d="M117.5,235c64.79,0,117.5-52.71,117.5-117.5S182.29,0,117.5,0S0,52.71,0,117.5S52.71,235,117.5,235z M117.5,15
	C174.019,15,220,60.981,220,117.5S174.019,220,117.5,220S15,174.019,15,117.5S60.981,15,117.5,15z M92.314,199.819
	c0.818,2.516,2.901,4.415,5.481,4.997c0.549,0.124,1.102,0.184,1.651,0.184c2.035,0,4.013-0.83,5.445-2.342
	c14.095-14.881,25.291-32.819,33.084-52.764c4.09,0.29,8.176,0.452,12.244,0.452c0.002,0,0.003,0,0.006,0
	c17.273,0,33.96-2.578,49.594-7.661c2.516-0.818,4.414-2.901,4.997-5.482c0.582-2.58-0.238-5.277-2.159-7.096
	c-14.88-14.094-32.814-25.289-52.753-33.082c1.525-21.353-0.883-42.357-7.22-61.844c-0.818-2.516-2.901-4.415-5.481-4.997
	c-2.584-0.584-5.277,0.238-7.097,2.158c-14.095,14.881-25.291,32.819-33.084,52.764c-4.09-0.289-8.176-0.452-12.244-0.452
	c-17.278,0-33.966,2.578-49.6,7.661c-2.516,0.818-4.414,2.901-4.997,5.481c-0.582,2.581,0.238,5.277,2.159,7.096
	c14.881,14.094,32.815,25.29,52.752,33.082C83.568,159.327,85.977,180.33,92.314,199.819z M102.977,181.86
	c-2.729-12.518-3.778-25.58-3.162-38.845c3.702,1.086,7.46,2.061,11.268,2.92c3.799,0.857,7.615,1.575,11.438,2.184
	C117.379,160.371,110.82,171.723,102.977,181.86z M132.023,53.14c2.729,12.518,3.777,25.579,3.161,38.844
	c-3.702-1.086-7.459-2.06-11.267-2.919c-3.799-0.857-7.615-1.575-11.438-2.184C117.621,74.629,124.18,63.278,132.023,53.14z
	 M53.145,102.981c10.178-2.211,20.769-3.327,31.635-3.327c11.892,0,23.949,1.36,35.836,4.043
	c22.949,5.179,43.865,14.881,61.24,28.322c-10.177,2.211-20.766,3.327-31.63,3.327h-0.005c-11.894-0.001-23.951-1.36-35.837-4.042
	C91.437,126.126,70.521,116.423,53.145,102.981z"/>
</svg>
