<svg version="1.1" id="Layer_1" xmlns="http://www.w3.org/2000/svg" xmlns:xlink="http://www.w3.org/1999/xlink" x="0px" y="0px"
	 viewBox="-30 -30 572 572" style="enable-background:new 0 0 512 512;" xml:space="preserve"
   fill="rgb(0, 0, 0)" >
  <g transform="translate(1 1)">
   <g>
    <path stroke="null" d="m464.226723,82.068426c2.317086,-2.330655 3.010527,-5.836378 1.756971,-8.882114c-1.253556,-3.045736 -4.207302,-5.031647 -7.483671,-5.031647s-6.230115,1.98591 -7.483671,5.031647c-1.253556,3.045736 -0.560115,6.551459 1.756971,8.882114c3.16305,3.181597 8.29035,3.181597 11.453401,0z" id="Shape"/>
    <path stroke="null" d="m361.129918,162.75342l-68.728503,69.144595c-2.105676,2.04622 -2.950101,5.076472 -2.20887,7.925956c0.741312,2.849484 2.952936,5.07476 5.784939,5.820648c2.832003,0.745806 5.843664,-0.103831 7.877331,-2.222505l68.736603,-69.144595c3.162807,-3.184531 3.160944,-8.345844 -0.00405,-11.528174s-8.294643,-3.180456 -11.457451,0.004075z" id="Shape"/>
    <path stroke="null" d="m349.676517,139.688922c-3.16305,-3.181597 -8.29035,-3.181597 -11.453401,0l-68.728503,69.160895c-2.105676,2.04622 -2.950101,5.076472 -2.20887,7.925956c0.741312,2.849484 2.952936,5.07476 5.784939,5.820648c2.832003,0.745806 5.843664,-0.103831 7.877331,-2.222505l68.728503,-69.152745c1.521018,-1.528695 2.375649,-3.603033 2.375649,-5.766125s-0.854631,-4.237429 -2.375649,-5.766125z" id="Shape"/>
    <path stroke="null" d="m189.895909,344.881458l99.905405,-42.070297c0.1944,-0.0815 2.268,-1.55665 2.6487,-1.8093l125.946906,-126.716191l28.633501,-28.810248l40.095002,-40.334347c15.789088,-15.924936 15.789088,-41.70371 0,-57.628646l-22.898701,-23.072648c-15.816142,-15.913526 -41.458961,-15.913526 -57.275103,0l-40.086902,40.334347l-154.604708,155.599789c-0.729324,0.806931 -1.330344,1.722421 -1.782,2.71395l-41.796002,100.359093c-2.609172,6.11633 -1.260279,13.214491 3.407508,17.930814c4.667787,4.716405 11.716651,6.103372 17.806393,3.503685zm28.034101,-49.576447c-4.492098,-4.480951 -9.692946,-8.179747 -15.390001,-10.945449l22.064401,-53.048346c3.361824,-2.540599 8.102349,-2.040678 10.867528,1.146053c2.765178,3.186731 2.618001,7.980479 -0.337527,10.989296c-2.105676,2.04622 -2.950101,5.076472 -2.20887,7.925956c0.741312,2.849484 2.952936,5.07476 5.784939,5.820648c2.832003,0.745806 5.843664,-0.103831 7.877331,-2.222505s5.045328,-2.968311 7.877331,-2.222505c2.832003,0.745888 5.043627,2.971164 5.784939,5.820648c0.741231,2.849484 -0.103194,5.879736 -2.20887,7.925956c-3.162807,3.184531 -3.160944,8.345844 0.00405,11.528174c3.164994,3.18233 8.294643,3.180456 11.457451,-0.004075c3.200067,-3.090398 8.253333,-3.090398 11.453401,0c2.803734,2.88347 3.063015,7.40623 0.6075,10.594999l-52.755303,22.176148c-2.745009,-5.734421 -6.421599,-10.967943 -10.878301,-15.484999zm194.74021,-138.30549l-11.453401,-11.532249c-2.047437,-2.058608 -5.030748,-2.861791 -7.826301,-2.107019s-4.978584,2.952826 -5.7267,5.766125c-0.748197,2.813298 0.052164,5.814536 2.099601,7.873144l11.453401,11.524099l-104.141705,104.776393c-3.707127,-8.13753 -11.614591,-13.516122 -20.501101,-13.944649c-0.694899,-12.432906 -10.565641,-22.354063 -22.923001,-23.040048c-0.413019,-8.947314 -5.757804,-16.913368 -13.851001,-20.643949l104.149805,-104.792693l22.914901,23.056348c2.035206,2.117125 5.047353,2.964644 7.878789,2.2168c2.831517,-0.747925 5.041521,-2.97475 5.780808,-5.824723s-0.107244,-5.879573 -2.214297,-7.924326l-22.914901,-23.048198l17.188201,-17.294299l40.078802,40.334347l17.172001,17.277999l-17.163901,17.326899zm5.7348,-121.035642c9.617859,-9.234601 24.750442,-9.234601 34.368302,0l22.914901,23.048198c9.469386,9.557912 9.469386,25.022536 0,34.580448l-34.368302,34.572298l-11.453401,-11.524099l11.445301,-11.524099c3.069657,-3.197897 3.025755,-8.281051 -0.098658,-11.424832c-3.124494,-3.143699 -8.176464,-3.187872 -11.354743,-0.099267l-11.445301,11.524099l-34.368302,-34.580448l34.360202,-34.572298zm-222.158711,263.416132c3.771765,1.927393 7.2252,4.429036 10.238401,7.416499c2.966058,3.018434 5.447331,6.482917 7.3548,10.268999l-30.237302,12.722149l12.644101,-30.407648z" id="Shape"/>
    <path stroke="null" d="m486.850024,379.250005l-352.350018,0l0,-354.524976c0,-6.751704 -5.439717,-12.224999 -12.150001,-12.224999l-97.200005,0c-6.710283,0 -12.150001,5.473295 -12.150001,12.224999l0,464.549968c0,6.751704 5.439717,12.224999 12.150001,12.224999l461.700023,0c6.710283,0 12.150001,-5.473295 12.150001,-12.224999l0,-97.799993c0,-6.751704 -5.439717,-12.224999 -12.150001,-12.224999zm-4.05,105.949993l-453.600023,0l0,-456.399969l89.100004,0l0,48.899997l-48.600002,0c-4.473468,0 -8.1,3.648918 -8.1,8.149999s3.626532,8.149999 8.1,8.149999l48.600002,0l0,32.599998l-16.200001,0c-4.473468,0 -8.1,3.648918 -8.1,8.149999s3.626532,8.149999 8.1,8.149999l16.200001,0l0,32.599998l-48.600002,0c-4.473468,0 -8.1,3.648918 -8.1,8.149999s3.626532,8.149999 8.1,8.149999l48.600002,0l0,32.599998l-16.200001,0c-4.473468,0 -8.1,3.648918 -8.1,8.149999s3.626532,8.149999 8.1,8.149999l16.200001,0l0,32.599998l-48.600002,0c-4.473468,0 -8.1,3.648918 -8.1,8.149999s3.626532,8.149999 8.1,8.149999l48.600002,0l0,32.599998l-16.200001,0c-4.473468,0 -8.1,3.648918 -8.1,8.149999s3.626532,8.149999 8.1,8.149999l16.200001,0l0,40.749997l-48.600002,0c-4.473468,0 -8.1,3.648918 -8.1,8.149999s3.626532,8.149999 8.1,8.149999l48.600002,0l0,57.049996c0,4.501082 3.626532,8.149999 8.1,8.149999s8.1,-3.648918 8.1,-8.149999l0,-57.049996l40.500002,0l0,16.299999c0,4.501082 3.626532,8.149999 8.1,8.149999s8.1,-3.648918 8.1,-8.149999l0,-16.299999l32.400002,0l0,48.899997c0,4.501082 3.626532,8.149999 8.1,8.149999s8.1,-3.648918 8.1,-8.149999l0,-48.899997l32.400002,0l0,16.299999c0,4.501082 3.626532,8.149999 8.1,8.149999s8.1,-3.648918 8.1,-8.149999l0,-16.299999l32.400002,0l0,48.899997c0,4.501082 3.626532,8.149999 8.1,8.149999s8.1,-3.648918 8.1,-8.149999l0,-48.899997l32.400002,0l0,16.299999c0,4.501082 3.626532,8.149999 8.1,8.149999s8.1,-3.648918 8.1,-8.149999l0,-16.299999l32.400002,0l0,48.899997c0,4.501082 3.626532,8.149999 8.1,8.149999s8.1,-3.648918 8.1,-8.149999l0,-48.899997l48.600002,0l0,89.649994z" id="Shape"/>
   </g>
  </g>
</svg>