<?xml version="1.0" standalone="no"?><!DOCTYPE svg PUBLIC "-//W3C//DTD SVG 1.1//EN" "http://www.w3.org/Graphics/SVG/1.1/DTD/svg11.dtd"><svg t="1597385251002" class="icon" viewBox="0 0 1228 1024" version="1.1" xmlns="http://www.w3.org/2000/svg" p-id="8125" xmlns:xlink="http://www.w3.org/1999/xlink" width="239.84375" height="200"><defs><style type="text/css"></style></defs><path d="M737.28 491.52h-675.84c-34.816 0-61.44 26.624-61.44 61.44v409.6c0 34.816 26.624 61.44 61.44 61.44h1105.92c34.816 0 61.44-26.624 61.44-61.44v-409.6c0-34.816-26.624-61.44-61.44-61.44H819.2v-143.36c0-22.528-18.432-40.96-40.96-40.96s-40.96 18.432-40.96 40.96v143.36z m-675.84 266.24c0-22.528 18.432-40.96 40.96-40.96s40.96 18.432 40.96 40.96-18.432 40.96-40.96 40.96-40.96-16.384-40.96-40.96z m102.4 0c0-12.288 8.192-20.48 20.48-20.48s20.48 8.192 20.48 20.48-8.192 20.48-20.48 20.48-20.48-8.192-20.48-20.48z m61.44 0c0-12.288 8.192-20.48 20.48-20.48s20.48 8.192 20.48 20.48-8.192 20.48-20.48 20.48-20.48-8.192-20.48-20.48zM1075.2 129.024l-2.048-2.048-2.048-2.048c-79.872-77.824-184.32-118.784-292.864-120.832h-30.72c-106.496 2.048-210.944 43.008-292.864 120.832l-2.048 2.048-2.048 2.048c-14.336 18.432-14.336 43.008 2.048 61.44 16.384 16.384 43.008 18.432 61.44 2.048l2.048-2.048 2.048-2.048c65.536-63.488 149.504-94.208 237.568-96.256 90.112-2.048 180.224 30.72 249.856 96.256 0 0 0 2.048 2.048 2.048l2.048 2.048c18.432 14.336 43.008 14.336 61.44-2.048 16.384-18.432 18.432-45.056 4.096-61.44z" p-id="8126"></path><path d="M970.752 241.664c-53.248-53.248-122.88-79.872-192.512-83.968h-20.48c-71.68 2.048-139.264 28.672-192.512 81.92-18.432 18.432-18.432 45.056 0 63.488 18.432 18.432 45.056 18.432 63.488 0l4.096-4.096c36.864-34.816 86.016-55.296 139.264-55.296 51.2 2.048 98.304 20.48 135.168 55.296l4.096 4.096c18.432 18.432 45.056 18.432 63.488 0 14.336-16.384 14.336-45.056-4.096-61.44z" p-id="8127"></path></svg>