<?xml version="1.0" encoding="utf-8"?>
<!-- Generator: Adobe Illustrator 24.2.0, SVG Export Plug-In . SVG Version: 6.00 Build 0)  -->
<svg version="1.1" id="PHOTO_1" xmlns="http://www.w3.org/2000/svg" xmlns:xlink="http://www.w3.org/1999/xlink" x="0px" y="0px"
	 viewBox="0 0 200 200" style="enable-background:new 0 0 200 200;" xml:space="preserve">

<path class="st0" d="M115.8,26.5V6.7c0-6.5-5.1-9.2-8.7-6.5L52.5,38.1c-2.5,1.7-3.2,5.1-1.5,7.7c0.4,0.6,0.9,1.1,1.5,1.5L107,85.3
	c2.6,1.7,6.1,1,7.8-1.6c0.6-0.9,0.9-2,0.9-3V67.6c0-3.1,2.5-5.5,5.5-5.5c0.2,0,0.3,0,0.5,0C152,65,177.1,87,183.8,116.6
	c1.1-4.9,1.7-10,1.7-15c-0.2-36.4-28.2-66.7-64.5-69.7C118.1,31.8,115.8,29.4,115.8,26.5L115.8,26.5z M82.6,172.4v22.1
	c0,3.1,2.5,5.5,5.6,5.5c1.1,0,2.1-0.3,3.1-0.9l54.8-38.2c2.5-1.8,3-5.2,1.2-7.7c-0.3-0.5-0.8-0.9-1.2-1.2l-54.8-38.2
	c-2.4-1.8-5.8-1.3-7.6,1.2c-0.7,0.9-1.1,2.1-1.1,3.3v13.3c0.1,3-2.3,5.5-5.3,5.5c-0.2,0-0.4,0-0.6,0c-30.3-2.8-55.4-24.8-62.2-54.5
	c-1.1,4.9-1.7,10-1.7,15c0.5,36.2,28.4,66.1,64.5,69C80.4,166.8,82.7,169.4,82.6,172.4z"/>
</svg>
