<?xml version="1.0" standalone="no"?><!DOCTYPE svg PUBLIC "-//W3C//DTD SVG 1.1//EN" "http://www.w3.org/Graphics/SVG/1.1/DTD/svg11.dtd"><svg t="1597650611455" class="icon" viewBox="0 0 1142 1024" version="1.1" xmlns="http://www.w3.org/2000/svg" p-id="2779" width="17.84375" height="16" xmlns:xlink="http://www.w3.org/1999/xlink"><defs><style type="text/css"></style></defs><path d="M1039.226766 392.089219c-3.806691-15.226766-22.840149-22.840149-38.066915-19.033457-15.226766 3.806691-22.840149 19.033457-19.033457 34.260223 11.420074 38.066914 19.033457 79.94052 19.033457 118.007435 0 163.687732-102.780669 308.342007-255.048327 373.055762-156.074349 60.907063-334.988848 26.64684-452.996282-87.553903-118.007435-114.200743-156.074349-289.30855-91.360595-437.769517C266.468401 224.594796 418.736059 125.620818 586.230483 125.620818c64.713755 0 125.620818 15.226766 182.72119 41.873606L738.498141 228.401487h182.72119L837.472119 41.873606l-41.873606 76.133829c-190.334572-91.360595-418.736059-49.486989-563.390335 102.780669-144.654275 152.267658-163.687732 376.862454-53.29368 551.97026s331.182156 255.048327 532.936803 201.754647c205.561338-57.100372 346.408922-236.01487 346.408922-441.576208 3.806691-49.486989-3.806691-95.167286-19.033457-140.847584z m0 0" p-id="2780" fill="#707070"></path><path d="M578.6171 289.30855C510.096654 289.30855 456.802974 342.60223 456.802974 407.315985v64.713755h-26.64684c-15.226766 0-26.64684 15.226766-26.64684 30.453531v213.174722c0 7.613383 3.806691 15.226766 7.613383 19.033457 3.806691 3.806691 11.420074 7.613383 22.840148 7.613383h296.921933c15.226766 0 30.453532-11.420074 30.453532-30.453532v-213.174721c0-15.226766-11.420074-30.453532-30.453532-30.453532h-26.64684v-64.713754c0-30.453532-11.420074-64.713755-34.260223-87.553904-26.64684-15.226766-57.100372-26.64684-91.360595-26.64684z m-68.520446 118.007435c3.806691-34.260223 30.453532-57.100372 64.713755-57.100372 34.260223 0 60.907063 26.64684 64.713755 57.100372v64.713755h-133.234201v-64.713755z m79.940521 220.788104v64.713755c0 3.806691 0 7.613383-3.806692 7.613383-3.806691 3.806691-3.806691 3.806691-7.613383 3.806691s-7.613383 0-7.613383-3.806691c-3.806691-3.806691-3.806691-3.806691-3.806691-7.613383v-60.907063c-26.64684-7.613383-41.873606-30.453532-38.066914-53.293681 3.806691-26.64684 22.840149-45.680297 49.486988-45.680297 30.453532 0 53.29368 22.840149 53.293681 49.486989-3.806691 22.840149-19.033457 41.873606-41.873606 45.680297z m0 0" p-id="2781" fill="#707070"></path></svg>