<?xml version="1.0" standalone="no"?><!DOCTYPE svg PUBLIC "-//W3C//DTD SVG 1.1//EN" "http://www.w3.org/Graphics/SVG/1.1/DTD/svg11.dtd"><svg t="1598517762044" class="icon" viewBox="0 0 1025 1024" version="1.1" xmlns="http://www.w3.org/2000/svg" p-id="1272" width="32.03125" height="32" xmlns:xlink="http://www.w3.org/1999/xlink"><defs><style type="text/css"></style></defs><path d="M933.744837 1023.98848H269.435632a90.750525 90.750525 0 0 1-92.158502-89.598544v-87.550577H92.158513a91.198518 91.198518 0 0 1-92.158503-89.598544V89.603664A91.198518 91.198518 0 0 1 92.158513 0.00512h664.309205a91.198518 91.198518 0 0 1 92.158502 89.598544v87.614576h85.118617a90.558528 90.558528 0 0 1 91.518513 89.598544V934.389936a90.558528 90.558528 0 0 1-91.518513 89.598544zM620.789923 186.562088H227.836308a44.799272 44.799272 0 1 0 0 89.598544h392.953615a44.799272 44.799272 0 1 0 0-89.598544z m0 191.99688H227.836308a44.799272 44.799272 0 1 0 0 89.598544h392.953615a44.799272 44.799272 0 1 0 0-89.598544z m0 191.99688H227.836308a44.799272 44.799272 0 1 0 0 89.598544h392.953615a44.799272 44.799272 0 1 0 0-89.598544z m312.954914-303.739064h-85.118617v490.360032a91.198518 91.198518 0 0 1-92.158502 89.598544H269.435632V934.389936h650.869423a13.375783 13.375783 0 0 0 13.439782-12.799792V266.816784z" fill="#1296db" p-id="1273"></path></svg>